<mxfile host="app.diagrams.net" modified="2023-11-11T13:57:52.539Z" agent="Mozilla/5.0 (Windows NT 10.0; Win64; x64) AppleWebKit/537.36 (KHTML, like Gecko) Chrome/119.0.0.0 Safari/537.36 Edg/119.0.0.0" etag="GxMv95Svjqleg4-WM7tl" version="22.1.0" type="device">
  <diagram name="Page-1" id="diihbkev8XBeM6vhfQsC">
    <mxGraphModel dx="1554" dy="823" grid="1" gridSize="10" guides="1" tooltips="1" connect="1" arrows="1" fold="1" page="1" pageScale="1" pageWidth="827" pageHeight="1169" math="0" shadow="0">
      <root>
        <mxCell id="0" />
        <mxCell id="1" parent="0" />
        <mxCell id="P_cF1_MgWMTi0SuyGLM_-24" value="" style="verticalLabelPosition=bottom;verticalAlign=top;html=1;shape=card;whiteSpace=wrap;size=20;arcSize=12;rounded=1;fillColor=#ffe6cc;strokeColor=#d79b00;" vertex="1" parent="1">
          <mxGeometry x="414" y="450" width="120" height="60" as="geometry" />
        </mxCell>
        <mxCell id="P_cF1_MgWMTi0SuyGLM_-23" value="" style="verticalLabelPosition=bottom;verticalAlign=top;html=1;shape=card;whiteSpace=wrap;size=20;arcSize=12;rounded=1;fillColor=#ffe6cc;strokeColor=#d79b00;" vertex="1" parent="1">
          <mxGeometry x="478" y="209.5" width="120" height="60" as="geometry" />
        </mxCell>
        <mxCell id="P_cF1_MgWMTi0SuyGLM_-21" value="" style="verticalLabelPosition=bottom;verticalAlign=top;html=1;shape=card;whiteSpace=wrap;size=20;arcSize=12;rounded=1;fillColor=#ffe6cc;strokeColor=#d79b00;" vertex="1" parent="1">
          <mxGeometry x="100" y="331.8" width="120" height="60" as="geometry" />
        </mxCell>
        <mxCell id="cxPOfpa7ZlkW-v1xQVbk-19" value="" style="shape=datastore;whiteSpace=wrap;html=1;fillColor=#e1d5e7;strokeColor=#9673a6;" parent="1" vertex="1">
          <mxGeometry x="334" y="317.21" width="80" height="82.79" as="geometry" />
        </mxCell>
        <mxCell id="cxPOfpa7ZlkW-v1xQVbk-2" value="" style="shape=image;verticalLabelPosition=bottom;labelBackgroundColor=default;verticalAlign=top;aspect=fixed;imageAspect=0;image=https://upload.wikimedia.org/wikipedia/commons/thumb/6/69/Discogs_record_icon.svg/1200px-Discogs_record_icon.svg.png;" parent="1" vertex="1">
          <mxGeometry x="105.23" y="350" width="24.77" height="25" as="geometry" />
        </mxCell>
        <mxCell id="cxPOfpa7ZlkW-v1xQVbk-4" value="" style="shape=image;verticalLabelPosition=bottom;labelBackgroundColor=default;verticalAlign=top;aspect=fixed;imageAspect=0;image=https://upload.wikimedia.org/wikipedia/commons/thumb/9/9a/MusicBrainz_Logo_Icon_%282016%29.svg/480px-MusicBrainz_Logo_Icon_%282016%29.svg.png;" parent="1" vertex="1">
          <mxGeometry x="414" y="461.25" width="37.5" height="37.5" as="geometry" />
        </mxCell>
        <mxCell id="cxPOfpa7ZlkW-v1xQVbk-5" value="&lt;font style=&quot;font-size: 14px;&quot; data-font-src=&quot;https://fonts.googleapis.com/css?family=roboto&quot; face=&quot;roboto&quot;&gt;Discogs XML Dumps&lt;/font&gt;" style="text;html=1;strokeColor=none;fillColor=none;align=center;verticalAlign=middle;whiteSpace=wrap;rounded=0;" parent="1" vertex="1">
          <mxGeometry x="130" y="350.00000000000006" width="90" height="25" as="geometry" />
        </mxCell>
        <mxCell id="cxPOfpa7ZlkW-v1xQVbk-6" value="&lt;font style=&quot;font-size: 14px;&quot; data-font-src=&quot;https://fonts.googleapis.com/css?family=roboto&quot; face=&quot;roboto&quot;&gt;MusicBrainz&amp;nbsp;&lt;br&gt;Dumps&lt;br&gt;&lt;/font&gt;" style="text;html=1;strokeColor=none;fillColor=none;align=center;verticalAlign=middle;whiteSpace=wrap;rounded=0;" parent="1" vertex="1">
          <mxGeometry x="449.5" y="465" width="87" height="30" as="geometry" />
        </mxCell>
        <mxCell id="cxPOfpa7ZlkW-v1xQVbk-9" value="" style="shape=image;verticalLabelPosition=bottom;labelBackgroundColor=default;verticalAlign=top;aspect=fixed;imageAspect=0;image=https://upload.wikimedia.org/wikipedia/fr/6/68/Rateyourmusic_com.png;" parent="1" vertex="1">
          <mxGeometry x="489" y="224.75" width="29.5" height="29.5" as="geometry" />
        </mxCell>
        <mxCell id="cxPOfpa7ZlkW-v1xQVbk-11" value="&lt;font style=&quot;font-size: 14px;&quot; data-font-src=&quot;https://fonts.googleapis.com/css?family=roboto&quot; face=&quot;roboto&quot;&gt;RYM charts&lt;/font&gt;" style="text;html=1;strokeColor=none;fillColor=none;align=center;verticalAlign=middle;whiteSpace=wrap;rounded=0;" parent="1" vertex="1">
          <mxGeometry x="518.5" y="229.5" width="79.5" height="20" as="geometry" />
        </mxCell>
        <mxCell id="cxPOfpa7ZlkW-v1xQVbk-12" value="" style="shape=image;verticalLabelPosition=bottom;labelBackgroundColor=default;verticalAlign=top;aspect=fixed;imageAspect=0;image=https://upload.wikimedia.org/wikipedia/commons/thumb/2/29/Postgresql_elephant.svg/1200px-Postgresql_elephant.svg.png;" parent="1" vertex="1">
          <mxGeometry x="357.71999999999997" y="345" width="32.56" height="33.6" as="geometry" />
        </mxCell>
        <mxCell id="cxPOfpa7ZlkW-v1xQVbk-13" value="&lt;font style=&quot;font-size: 14px;&quot; data-font-src=&quot;https://fonts.googleapis.com/css?family=roboto&quot; face=&quot;roboto&quot;&gt;PostgreSQL&lt;/font&gt;" style="text;html=1;strokeColor=none;fillColor=none;align=center;verticalAlign=middle;whiteSpace=wrap;rounded=0;" parent="1" vertex="1">
          <mxGeometry x="349.99999999999994" y="370" width="60" height="30" as="geometry" />
        </mxCell>
        <mxCell id="cxPOfpa7ZlkW-v1xQVbk-17" value="" style="endArrow=classic;html=1;rounded=0;" parent="1" edge="1">
          <mxGeometry width="50" height="50" relative="1" as="geometry">
            <mxPoint x="220" y="360" as="sourcePoint" />
            <mxPoint x="335" y="360" as="targetPoint" />
          </mxGeometry>
        </mxCell>
        <mxCell id="cxPOfpa7ZlkW-v1xQVbk-20" value="&lt;a style=&quot;box-sizing: border-box; background-color: transparent; color: var(--fgColor-default, var(--color-fg-default)) !important; text-decoration: none;&quot; href=&quot;https://github.com/philipmat/discogs-xml2db&quot; class=&quot;color-fg-default&quot; data-turbo-frame=&quot;repo-content-turbo-frame&quot; data-pjax=&quot;#repo-content-pjax-container&quot;&gt;&lt;font data-font-src=&quot;https://fonts.googleapis.com/css?family=roboto&quot; face=&quot;roboto&quot;&gt;discogs-xml2db&lt;/font&gt;&lt;/a&gt;" style="text;html=1;strokeColor=none;fillColor=none;align=center;verticalAlign=middle;whiteSpace=wrap;rounded=0;" parent="1" vertex="1">
          <mxGeometry x="230" y="330" width="90" height="30" as="geometry" />
        </mxCell>
        <mxCell id="cxPOfpa7ZlkW-v1xQVbk-25" value="" style="rounded=1;whiteSpace=wrap;html=1;fillColor=#d5e8d4;strokeColor=#82b366;" parent="1" vertex="1">
          <mxGeometry x="633" y="330" width="130" height="60" as="geometry" />
        </mxCell>
        <mxCell id="cxPOfpa7ZlkW-v1xQVbk-26" value="&lt;font style=&quot;font-size: 14px;&quot; data-font-src=&quot;https://fonts.googleapis.com/css?family=roboto&quot; face=&quot;roboto&quot;&gt;Unclean album dataset&lt;/font&gt;" style="text;html=1;strokeColor=none;fillColor=none;align=center;verticalAlign=middle;whiteSpace=wrap;rounded=0;" parent="1" vertex="1">
          <mxGeometry x="640" y="345" width="110" height="30" as="geometry" />
        </mxCell>
        <mxCell id="cxPOfpa7ZlkW-v1xQVbk-27" value="" style="endArrow=classic;html=1;rounded=0;entryX=0;entryY=0.5;entryDx=0;entryDy=0;exitX=0.95;exitY=0.517;exitDx=0;exitDy=0;exitPerimeter=0;" parent="1" target="cxPOfpa7ZlkW-v1xQVbk-31" edge="1" source="cxPOfpa7ZlkW-v1xQVbk-19">
          <mxGeometry width="50" height="50" relative="1" as="geometry">
            <mxPoint x="420" y="360" as="sourcePoint" />
            <mxPoint x="490" y="360" as="targetPoint" />
          </mxGeometry>
        </mxCell>
        <mxCell id="cxPOfpa7ZlkW-v1xQVbk-28" value="" style="endArrow=classic;html=1;rounded=0;entryX=0.5;entryY=0;entryDx=0;entryDy=0;exitX=0.5;exitY=1;exitDx=0;exitDy=0;exitPerimeter=0;" parent="1" source="P_cF1_MgWMTi0SuyGLM_-23" target="cxPOfpa7ZlkW-v1xQVbk-31" edge="1">
          <mxGeometry width="50" height="50" relative="1" as="geometry">
            <mxPoint x="538" y="268.25" as="sourcePoint" />
            <mxPoint x="640" y="280" as="targetPoint" />
          </mxGeometry>
        </mxCell>
        <mxCell id="cxPOfpa7ZlkW-v1xQVbk-30" value="&lt;font data-font-src=&quot;https://fonts.googleapis.com/css?family=roboto&quot; face=&quot;roboto&quot;&gt;Title,artitst name&lt;/font&gt;" style="text;html=1;strokeColor=none;fillColor=none;align=center;verticalAlign=middle;whiteSpace=wrap;rounded=0;" parent="1" vertex="1">
          <mxGeometry x="540" y="290" width="100" height="30" as="geometry" />
        </mxCell>
        <mxCell id="cxPOfpa7ZlkW-v1xQVbk-31" value="" style="rhombus;whiteSpace=wrap;html=1;fillColor=#f5f5f5;fontColor=#333333;strokeColor=#666666;" parent="1" vertex="1">
          <mxGeometry x="523" y="345" width="30" height="30" as="geometry" />
        </mxCell>
        <mxCell id="cxPOfpa7ZlkW-v1xQVbk-32" value="&lt;font data-font-src=&quot;https://fonts.googleapis.com/css?family=roboto&quot; face=&quot;roboto&quot;&gt;Query Tool&lt;/font&gt;" style="text;html=1;strokeColor=none;fillColor=none;align=center;verticalAlign=middle;whiteSpace=wrap;rounded=0;" parent="1" vertex="1">
          <mxGeometry x="450" y="330" width="60" height="30" as="geometry" />
        </mxCell>
        <mxCell id="cxPOfpa7ZlkW-v1xQVbk-34" value="" style="endArrow=classic;html=1;rounded=0;exitX=1;exitY=0.5;exitDx=0;exitDy=0;entryX=0;entryY=0.5;entryDx=0;entryDy=0;" parent="1" source="cxPOfpa7ZlkW-v1xQVbk-31" target="cxPOfpa7ZlkW-v1xQVbk-25" edge="1">
          <mxGeometry width="50" height="50" relative="1" as="geometry">
            <mxPoint x="580" y="380" as="sourcePoint" />
            <mxPoint x="630" y="330" as="targetPoint" />
          </mxGeometry>
        </mxCell>
        <mxCell id="P_cF1_MgWMTi0SuyGLM_-1" value="" style="endArrow=classic;html=1;rounded=0;entryX=0.45;entryY=0.04;entryDx=0;entryDy=0;entryPerimeter=0;exitX=0.5;exitY=1;exitDx=0;exitDy=0;" edge="1" parent="1" source="cxPOfpa7ZlkW-v1xQVbk-25" target="P_cF1_MgWMTi0SuyGLM_-2">
          <mxGeometry width="50" height="50" relative="1" as="geometry">
            <mxPoint x="697" y="380" as="sourcePoint" />
            <mxPoint x="698" y="440" as="targetPoint" />
          </mxGeometry>
        </mxCell>
        <mxCell id="P_cF1_MgWMTi0SuyGLM_-2" value="&lt;font style=&quot;font-size: 14px;&quot; data-font-src=&quot;https://fonts.googleapis.com/css?family=roboto&quot; face=&quot;roboto&quot;&gt;Clean album dataset&lt;/font&gt;" style="rounded=1;whiteSpace=wrap;html=1;fillColor=#d5e8d4;strokeColor=#82b366;" vertex="1" parent="1">
          <mxGeometry x="640" y="450" width="127" height="60" as="geometry" />
        </mxCell>
        <mxCell id="P_cF1_MgWMTi0SuyGLM_-3" value="&lt;font data-font-src=&quot;https://fonts.googleapis.com/css?family=roboto&quot; face=&quot;roboto&quot;&gt;Clean roles and names&lt;/font&gt;" style="text;html=1;strokeColor=none;fillColor=none;align=center;verticalAlign=middle;whiteSpace=wrap;rounded=0;" vertex="1" parent="1">
          <mxGeometry x="700" y="400" width="117" height="30" as="geometry" />
        </mxCell>
        <mxCell id="P_cF1_MgWMTi0SuyGLM_-6" value="" style="endArrow=classic;html=1;rounded=0;exitX=0;exitY=0.5;exitDx=0;exitDy=0;" edge="1" parent="1" source="cxPOfpa7ZlkW-v1xQVbk-4">
          <mxGeometry width="50" height="50" relative="1" as="geometry">
            <mxPoint x="410" y="480" as="sourcePoint" />
            <mxPoint x="375" y="400" as="targetPoint" />
            <Array as="points">
              <mxPoint x="375" y="480" />
            </Array>
          </mxGeometry>
        </mxCell>
        <mxCell id="P_cF1_MgWMTi0SuyGLM_-12" value="" style="endArrow=classic;html=1;rounded=0;" edge="1" parent="1" target="cxPOfpa7ZlkW-v1xQVbk-6">
          <mxGeometry width="50" height="50" relative="1" as="geometry">
            <mxPoint x="640" y="480" as="sourcePoint" />
            <mxPoint x="570" y="480" as="targetPoint" />
          </mxGeometry>
        </mxCell>
        <mxCell id="P_cF1_MgWMTi0SuyGLM_-13" value="&lt;font data-font-src=&quot;https://fonts.googleapis.com/css?family=roboto&quot; face=&quot;roboto&quot;&gt;Discogs artist id&lt;/font&gt;" style="text;html=1;strokeColor=none;fillColor=none;align=center;verticalAlign=middle;whiteSpace=wrap;rounded=0;" vertex="1" parent="1">
          <mxGeometry x="546" y="480" width="87" height="30" as="geometry" />
        </mxCell>
        <mxCell id="P_cF1_MgWMTi0SuyGLM_-15" value="&lt;font data-font-src=&quot;https://fonts.googleapis.com/css?family=roboto&quot; face=&quot;roboto&quot;&gt;MBdata&lt;/font&gt;" style="text;html=1;strokeColor=none;fillColor=none;align=center;verticalAlign=middle;whiteSpace=wrap;rounded=0;" vertex="1" parent="1">
          <mxGeometry x="370" y="410" width="60" height="30" as="geometry" />
        </mxCell>
        <mxCell id="P_cF1_MgWMTi0SuyGLM_-18" value="" style="endArrow=classic;html=1;rounded=0;" edge="1" parent="1">
          <mxGeometry width="50" height="50" relative="1" as="geometry">
            <mxPoint x="60" y="360" as="sourcePoint" />
            <mxPoint x="100" y="360" as="targetPoint" />
          </mxGeometry>
        </mxCell>
        <mxCell id="P_cF1_MgWMTi0SuyGLM_-19" value="" style="ellipse;whiteSpace=wrap;html=1;aspect=fixed;fillColor=#000000;" vertex="1" parent="1">
          <mxGeometry x="40" y="350" width="20" height="20" as="geometry" />
        </mxCell>
      </root>
    </mxGraphModel>
  </diagram>
</mxfile>
